<svg width="7" height="13" viewBox="0 0 7 13" xmlns="http://www.w3.org/2000/svg">
<path d="M1.23602 12.9426C1.02039 12.943 0.811418 12.8679 0.645382 12.7304C0.551933 12.6529 0.474687 12.5577 0.418067 12.4504C0.361447 12.343 0.326566 12.2255 0.315421 12.1046C0.304277 11.9837 0.317088 11.8619 0.353121 11.7459C0.389154 11.63 0.447701 11.5224 0.525408 11.4291L4.65988 6.48249L0.673069 1.52666C0.59641 1.43226 0.539162 1.32364 0.504617 1.20705C0.470073 1.09045 0.458911 0.968178 0.471776 0.847256C0.48464 0.726333 0.521275 0.609145 0.579576 0.502427C0.637878 0.395709 0.716696 0.301565 0.8115 0.225407C0.906986 0.141391 1.01881 0.0780199 1.13995 0.0392693C1.26108 0.000518654 1.38893 -0.0127742 1.51544 0.000224432C1.64196 0.013223 1.76443 0.0522327 1.87516 0.114805C1.98589 0.177378 2.08249 0.262162 2.1589 0.363838L6.61638 5.90108C6.75212 6.06622 6.82632 6.27335 6.82632 6.48711C6.82632 6.70087 6.75212 6.908 6.61638 7.07313L2.00201 12.6104C1.90943 12.7221 1.79182 12.8103 1.65873 12.8681C1.52565 12.9258 1.38083 12.9513 1.23602 12.9426Z" fill="currentColor"/>
</svg>
